<svg xmlns="http://www.w3.org/2000/svg" width="38.096" height="34.004" viewBox="0 0 38.096 34.004">
  <g id="telescope_2_" data-name="telescope (2)" transform="translate(0 0)">
    <path id="Path_9138" data-name="Path 9138" d="M182.238,118.024a.744.744,0,1,0-.36-.989A.744.744,0,0,0,182.238,118.024Zm0,0" transform="translate(-168.28 -107.929)" fill="#535962"/>
    <path id="Path_9139" data-name="Path 9139" d="M217.455,136.866l6.5,3.686a.744.744,0,0,0,.734-1.294l-6.5-3.686a.744.744,0,0,0-.734,1.294Zm0,0" transform="translate(-200.926 -125.395)" fill="#535962"/>
    <path id="Path_9140" data-name="Path 9140" d="M1.29,13.7l1.349.63a2.235,2.235,0,0,0,2.587-.515l10.713,3.5a3,3,0,0,0-.018.32,2.964,2.964,0,0,0,1.029,2.25L11.705,32.516H9.226a.744.744,0,0,0,0,1.488h5.952a.744.744,0,0,0,0-1.488H13.316l4.972-11.97a2.909,2.909,0,0,0,1.221,0l4.971,11.97H22.619a.744.744,0,0,0,0,1.488h5.952a.744.744,0,1,0,0-1.488h-2.48L20.845,19.884a3.012,3.012,0,0,0,.554-.639l6.92,2.47a.744.744,0,0,0,.925-.386l.315-.675,2.824,1.314a2.232,2.232,0,0,0,4.245,1.157l1.257-2.7a2.232,2.232,0,0,0-3.615-2.508l-2.824-1.313.314-.674a.744.744,0,0,0-.312-.964L10.2,3.123A2.232,2.232,0,0,0,8.928.838L7.58.21A2.235,2.235,0,0,0,4.613,1.289L.21,10.73A2.23,2.23,0,0,0,1.29,13.7ZM9.67,4.53l16.54,9.222-2.251,4.826-2.091-.746c0-.066.007-.131.007-.2a2.977,2.977,0,0,0-5.411-1.714L5.96,12.485Zm7.741,13.1A1.488,1.488,0,1,1,18.9,19.123,1.485,1.485,0,0,1,17.41,17.635Zm18.768,1.175a.744.744,0,0,1,.359.989L35.28,22.5a.744.744,0,1,1-1.349-.629l1.258-2.7a.746.746,0,0,1,.989-.36Zm-2.653.406L32.9,20.564,30.188,19.3l.629-1.349Zm-5,.133,0,0v0l-.341.731-2.815-1,2.146-4.6,2.606,1.453ZM1.559,11.36l4.4-9.442a.745.745,0,0,1,.989-.36L8.3,2.187a.744.744,0,0,1,.361.989l-4.4,9.441a.746.746,0,0,1-.988.361l-1.349-.63a.743.743,0,0,1-.36-.988Zm0,0" transform="translate(0 0)" fill="#535962"/>
  </g>
</svg>
