<svg xmlns="http://www.w3.org/2000/svg" width="12.412" height="17.705" viewBox="0 0 12.412 17.705">
  <path id="flag" d="M19.742.9C19.617.849,16.666-.374,14.37.915c-1.819,1.023-5.013.255-5.829.034V.287A.271.271,0,1,0,8,.287v.86s0,.007,0,.011,0,.006,0,.01v15.75a.271.271,0,1,0,.541,0V10.144a13.855,13.855,0,0,0,3.348.468,5.652,5.652,0,0,0,2.735-.588c2.072-1.164,4.888,0,4.916.013a.256.256,0,0,0,.252-.029.291.291,0,0,0,.119-.237v-8.6A.287.287,0,0,0,19.742.9ZM19.37,9.366a6.5,6.5,0,0,0-5,.151c-1.819,1.023-5.011.256-5.829.034V1.541c1.043.276,4.164.959,6.083-.12,1.778-1,4.1-.282,4.746-.052Z" transform="translate(-7.75 0.25)" fill="#8d8e8e" stroke="#8d8e8e" stroke-width="0.5"/>
</svg>
